Coordinates
version=1
nRows=15
nColumns=34
inDegrees=yes

Units are S.I. units (second, meters, Newtons, ...)
If the header above contains a line with 'inDegrees', this indicates whether rotational values are in degrees (yes) or radians (no).

endheader
time	pelvis_tilt	pelvis_list	pelvis_rotation	pelvis_tx	pelvis_ty	pelvis_tz	hip_flexion_r	hip_adduction_r	hip_rotation_r	knee_angle_r	ankle_angle_r	subtalar_angle_r	mtp_angle_r	hip_flexion_l	hip_adduction_l	hip_rotation_l	knee_angle_l	ankle_angle_l	subtalar_angle_l	mtp_angle_l	lumbar_extension	lumbar_bending	lumbar_rotation	arm_flex_r	arm_add_r	arm_rot_r	elbow_flex_r	pro_sup_r	arm_flex_l	arm_add_l	arm_rot_l	elbow_flex_l	pro_sup_l
      0.76666670	     -0.50701901	     -0.81065412	     -1.82277893	      1.62964933	      0.85778271	     -0.06105267	     -1.69218204	     -4.53730978	     -4.67423591	      2.72371560	      4.82213072	    -11.00717271	      0.00000000	     -1.86639239	     -5.31991211	     -2.83453543	      3.77067171	      6.84205942	     -4.46708767	      0.00000000	     -8.13502539	      2.22284670	     -1.16416539	      9.86543568	     -8.45309295	     34.19635744	     78.16114755	     87.28187785	     11.73185281	     -5.69680938	     33.35091465	     58.30328051	     83.10415869
      0.78333330	     -0.56827133	     -0.80589989	     -1.96300343	      1.62871555	      0.85746326	     -0.06109804	     -1.62103983	     -4.55884113	     -4.67575461	      2.69431132	      4.84672638	    -11.00878374	      0.00000000	     -1.80122861	     -5.30807481	     -2.84001357	      3.87145877	      6.85387477	     -4.48282225	      0.00000000	     -8.21982023	      2.24562103	     -1.21630883	      9.89359543	     -8.44771052	     34.16391450	     78.15817924	     87.26367156	     11.83657866	     -5.65386177	     33.32266909	     58.30701357	     83.10904341
      0.80000000	     -0.70012602	     -0.79571969	     -2.05102257	      1.62665630	      0.85635513	     -0.06093386	     -1.28142165	     -4.59731717	     -4.51840328	      2.89952988	      4.90869092	    -10.92007721	      0.00000000	     -1.21780506	     -5.33924451	     -3.01161988	      4.60770965	      6.95899350	     -4.67248176	      0.00000000	     -8.56664722	      2.24237857	     -1.18883047	     10.28950079	     -8.26447891	     33.95933829	     78.21838031	     87.15737484	     12.32169530	     -5.55872086	     33.09957311	     58.27757459	     83.13517799
      0.81666670	     -1.15097526	     -0.78649452	     -2.14917020	      1.62553112	      0.85353641	     -0.06117315	     -0.55923176	     -4.62827442	     -4.46393996	      3.20512274	      5.20468448	    -10.98934361	      0.00000000	     -0.38584789	     -5.35770551	     -3.01266608	      5.19404541	      7.35688803	     -4.99854800	      0.00000000	     -8.42067261	      2.34594909	     -1.13643253	     10.30755459	     -8.16077518	     33.57581949	     78.31315635	     86.79102792	     12.51625538	     -5.34137605	     32.62311579	     58.12947398	     83.27527238
      0.83333330	     -1.28488148	     -0.74252512	     -2.23963192	      1.62463081	      0.85037298	     -0.06179699	     -0.31481055	     -4.69395422	     -4.38184563	      3.21356638	      5.18505622	    -10.94982892	      0.00000000	      0.08481888	     -5.33508445	     -3.11705803	      5.66747370	      7.30441122	     -5.09203341	      0.00000000	     -8.67946911	      2.29516927	     -1.16049374	     10.64515677	     -8.01858954	     33.44104624	     78.40897998	     86.70585694	     12.91961945	     -5.29016866	     32.46434949	     58.16293631	     83.30941138
      0.85000000	     -1.67747689	     -0.71649700	     -2.32271040	      1.62384603	      0.84760518	     -0.06250473	      0.38519439	     -4.76490488	     -4.30359610	      3.56684022	      5.41203706	    -11.18936606	      0.00000000	      0.93731957	     -5.32507910	     -3.11934749	      6.33365771	      7.70687990	     -5.50300279	      0.00000000	     -8.68022846	      2.41266109	     -1.19258893	     10.82385143	     -7.92677041	     33.20790245	     78.70634674	     86.46270951	     13.17579260	     -5.20639155	     32.11542697	     58.28049418	     83.42736405
      0.86666670	     -2.13368306	     -0.67288804	     -2.42115467	      1.62298323	      0.84529665	     -0.06255407	      1.10945252	     -4.83329270	     -4.16517086	      3.80885145	      5.52687337	    -11.41406477	      0.00000000	      1.84452388	     -5.31016502	     -3.14393252	      6.94552843	      7.87851616	     -5.88981768	      0.00000000	     -8.64257618	      2.42048396	     -1.20093528	     11.05259412	     -7.81178721	     32.99763316	     79.06139823	     86.20946807	     13.43416992	     -5.12962821	     31.72428577	     58.47057034	     83.56109375
      0.88333330	     -2.41074852	     -0.61589162	     -2.49623244	      1.62163727	      0.84397142	     -0.06247888	      1.58874033	     -4.92109110	     -3.99702497	      3.95504896	      5.60988071	    -11.48156929	      0.00000000	      2.54078909	     -5.28113062	     -3.22988616	      7.51380155	      7.92862246	     -6.12114006	      0.00000000	     -8.89679604	      2.38050473	     -1.20327634	     11.37720441	     -7.68995556	     32.86008475	     79.23791643	     86.10195884	     13.80383797	     -5.11368404	     31.47503948	     58.59093627	     83.61320478
      0.90000000	     -3.18927697	     -0.57907793	     -2.60237447	      1.62009375	      0.84137852	     -0.06242710	      2.73350399	     -4.95289844	     -3.71521134	      4.30187422	      5.90199147	    -11.86695330	      0.00000000	      3.80186910	     -5.30013354	     -3.14892087	      8.11692768	      8.17184655	     -6.65798171	      0.00000000	     -8.51097786	      2.42251726	     -1.14087256	     11.52432933	     -7.61159747	     32.64093906	     79.65901741	     85.82401126	     13.96523823	     -5.02803495	     30.88405611	     59.02594992	     83.76856186
      0.91666670	     -3.48763233	     -0.51799441	     -2.67783598	      1.61800450	      0.83880914	     -0.06231605	      3.28833706	     -5.03448292	     -3.56744445	      4.48842272	      6.00584718	    -11.96589875	      0.00000000	      4.54995205	     -5.28017872	     -3.28484456	      8.67589137	      8.22396273	     -6.89094200	      0.00000000	     -8.86212003	      2.43944124	     -1.11013748	     11.98400913	     -7.46253882	     32.49304942	     79.75883244	     85.73838714	     14.52645374	     -4.99934293	     30.59898565	     59.22138564	     83.81102487
      0.93333330	     -4.47368925	     -0.48043519	     -2.81079445	      1.61581327	      0.83668747	     -0.06190689	      4.74123038	     -5.04570124	     -3.19067663	      4.93458654	      6.28593954	    -12.47972402	      0.00000000	      6.05911435	     -5.32276763	     -3.20853571	      9.25918811	      8.45760882	     -7.39865418	      0.00000000	     -8.35420940	      2.52625274	     -1.01174649	     12.19428534	     -7.35434302	     32.31649659	     80.02007816	     85.47346862	     14.71208918	     -4.92738702	     29.95522201	     59.86345606	     83.98797830
      0.95000000	     -4.77530646	     -0.46949367	     -2.90151591	      1.61370551	      0.83520869	     -0.06146921	      5.28722368	     -5.04705326	     -3.14762231	      5.04823975	      6.34904163	    -12.58047002	      0.00000000	      6.69533964	     -5.36793753	     -3.28371740	      9.55169990	      8.46846095	     -7.51093846	      0.00000000	     -8.70792124	      2.55266611	     -0.94839288	     12.84257781	     -7.13684816	     32.17637133	     80.07920554	     85.42619278	     15.50832666	     -4.85728242	     29.70563976	     60.08807985	     84.00889743
      0.96666670	     -5.94095543	     -0.43772083	     -3.05379090	      1.61194716	      0.83299013	     -0.06125877	      7.10962232	     -5.01726031	     -2.72680255	      5.80080205	      6.60133659	    -13.27228600	      0.00000000	      8.48064576	     -5.45936194	     -3.26152141	     10.25780871	      8.73496539	     -8.04050668	      0.00000000	     -8.20975991	      2.63379008	     -0.82738939	     13.16908946	     -6.98078133	     32.05878867	     80.17090015	     85.20283938	     15.71350995	     -4.84636019	     29.12461157	     60.84954201	     84.18746597
      0.98333330	     -6.66845441	     -0.42763222	     -3.21333205	      1.61070626	      0.83191396	     -0.06124079	      8.36271582	     -4.99127278	     -2.54653184	      6.36610626	      6.72935139	    -13.71407314	      0.00000000	      9.66123201	     -5.55912768	     -3.27604874	     10.77186408	      8.85721075	     -8.37656871	      0.00000000	     -8.21109874	      2.65544093	     -0.75029101	     13.77265138	     -6.70881409	     31.94748582	     80.17915003	     85.03811170	     16.27426225	     -4.82463077	     28.59216358	     61.35236756	     84.32143077
      1.00000000	     -7.43731783	     -0.37615783	     -3.37223979	      1.60986691	      0.83117218	     -0.06131977	      9.68076734	     -5.02359556	     -2.43054543	      7.02411699	      6.88168383	    -14.04782979	      0.00000000	     10.88239951	     -5.61471892	     -3.36249950	     11.30118422	      8.94678402	     -8.70190140	      0.00000000	     -8.17667906	      2.66954898	     -0.65714506	     14.34568653	     -6.43853264	     31.79746520	     80.22846556	     84.90363965	     16.88270243	     -4.80995790	     28.04282388	     61.89645363	     84.41998023
